<svg width="30" height="30" viewBox="0 0 30 30" fill="none" xmlns="http://www.w3.org/2000/svg">
<rect width="30" height="30" rx="4" fill="#C66B00"/>
<path d="M25 23.59L20.31 18.9C21.37 17.55 22 15.85 22 14C22 9.58 18.42 6 14 6C9.92 6 6.56 9.05 6.07 13H8.09C8.57 10.17 11.03 8 14 8C17.31 8 20 10.69 20 14C20 17.31 17.31 20 14 20C11.58 20 9.5 18.56 8.55 16.5H6.4C7.45 19.69 10.46 22 14 22C15.85 22 17.55 21.37 18.9 20.31L23.59 25L25 23.59Z" fill="white"/>
<path d="M11.43 12.69L12.65 18H14.29L15.55 14.22L16.5 16.5H18.5V15H17.5L16.25 12H14.71L13.59 15.37L12.35 10H10.7L9.45 14H4V15.5H10.55L11.43 12.69Z" fill="white"/>
</svg>
