<svg width="30" height="30" viewBox="0 0 30 30" fill="none" xmlns="http://www.w3.org/2000/svg">
<rect width="30" height="30" rx="4" fill="#C02B2B"/>
<path d="M19.3398 26H13.3242C12.3359 26 11.3906 25.5703 10.7031 24.8828L4 17.8789L5.89062 16.2031C6.44922 15.7305 7.30859 15.6016 7.95312 15.9883L10.1875 17.1484V8.38281C10.1875 7.13672 11.2188 6.10547 12.4648 6.10547C12.6367 6.10547 12.7656 6.10547 12.9375 6.14844C13.0234 4.94531 14.0117 4 15.2148 4C15.9883 4 16.6758 4.38672 17.1055 4.98828C17.3633 4.90234 17.6641 4.85938 17.9648 4.85938C19.2109 4.85938 20.2422 5.89062 20.2422 7.13672V7.39453C20.4141 7.35156 20.543 7.35156 20.7148 7.35156C21.9609 7.35156 22.9922 8.38281 22.9922 9.62891V22.3477C22.9922 24.3672 21.3594 26 19.3398 26ZM6.62109 18.0078L11.9922 23.5938C12.3359 23.9375 12.8516 24.1523 13.3242 24.1523H19.3398C20.3281 24.1523 21.1875 23.3359 21.1875 22.3477V9.62891C21.1875 9.37109 20.9727 9.19922 20.7148 9.19922C20.457 9.19922 20.2422 9.37109 20.2422 9.62891V15H18.4375V7.13672C18.4375 6.87891 18.2227 6.66406 17.9648 6.66406C17.707 6.66406 17.4922 6.87891 17.4922 7.13672V15H15.6875V6.32031C15.6875 6.0625 15.4727 5.84766 15.2148 5.84766C14.957 5.84766 14.7422 6.0625 14.7422 6.32031V15H12.9375V8.38281C12.9375 8.125 12.7227 7.95312 12.4648 7.95312C12.207 7.95312 11.9922 8.125 11.9922 8.38281V20.1992L7.09375 17.5781L6.62109 18.0078Z" fill="white"/>
</svg>
